<svg id="visual" viewBox="0 0 900 600" width="900" height="600" xmlns="http://www.w3.org/2000/svg" xmlns:xlink="http://www.w3.org/1999/xlink" version="1.1"><g stroke-width="1" stroke-linejoin="bevel"><path d="M452.9 276L458.9 259L395.1 220Z" fill="#0e1532" stroke="#0e1532"></path><path d="M395.1 220L399.1 291L452.9 276Z" fill="#021324" stroke="#021324"></path><path d="M399.1 291L460.9 335L452.9 276Z" fill="#26133b" stroke="#26133b"></path><path d="M452.9 276L555.7 264L458.9 259Z" fill="#06142b" stroke="#06142b"></path><path d="M353.3 345L399.1 352L399.1 291Z" fill="#09152f" stroke="#09152f"></path><path d="M399.1 291L399.1 352L460.9 335Z" fill="#041428" stroke="#041428"></path><path d="M395.1 220L320.3 277L399.1 291Z" fill="#20143a" stroke="#20143a"></path><path d="M555.7 264L481.9 175L458.9 259Z" fill="#131535" stroke="#131535"></path><path d="M458.9 259L481.9 175L395.1 220Z" fill="#191538" stroke="#191538"></path><path d="M320.3 277L353.3 345L399.1 291Z" fill="#191538" stroke="#191538"></path><path d="M401.1 123L311.3 221L395.1 220Z" fill="#06142b" stroke="#06142b"></path><path d="M395.1 220L311.3 221L320.3 277Z" fill="#09152f" stroke="#09152f"></path><path d="M481.9 175L401.1 123L395.1 220Z" fill="#0e1532" stroke="#0e1532"></path><path d="M460.9 335L555.7 264L452.9 276Z" fill="#131535" stroke="#131535"></path><path d="M406.1 65L363.3 94L401.1 123Z" fill="#09152f" stroke="#09152f"></path><path d="M401.1 123L288.3 122L311.3 221Z" fill="#021324" stroke="#021324"></path><path d="M624.5 329L589.7 247L555.7 264Z" fill="#26133b" stroke="#26133b"></path><path d="M555.7 264L589.7 247L481.9 175Z" fill="#041428" stroke="#041428"></path><path d="M493.9 75L406.1 65L401.1 123Z" fill="#011120" stroke="#011120"></path><path d="M254.5 133L240.5 247L311.3 221Z" fill="#06142b" stroke="#06142b"></path><path d="M311.3 221L240.5 247L320.3 277Z" fill="#041428" stroke="#041428"></path><path d="M320.3 277L247.5 313L353.3 345Z" fill="#191538" stroke="#191538"></path><path d="M240.5 247L247.5 313L320.3 277Z" fill="#021324" stroke="#021324"></path><path d="M500.9 472L559.7 373L460.9 335Z" fill="#131535" stroke="#131535"></path><path d="M460.9 335L559.7 373L555.7 264Z" fill="#20143a" stroke="#20143a"></path><path d="M363.3 94L288.3 122L401.1 123Z" fill="#011120" stroke="#011120"></path><path d="M493.9 75L401.1 123L481.9 175Z" fill="#021324" stroke="#021324"></path><path d="M363.3 94L284.5 82L288.3 122Z" fill="#26133b" stroke="#26133b"></path><path d="M573.7 110L493.9 75L481.9 175Z" fill="#0e1532" stroke="#0e1532"></path><path d="M284.5 82L254.5 133L288.3 122Z" fill="#26133b" stroke="#26133b"></path><path d="M288.3 122L254.5 133L311.3 221Z" fill="#26133b" stroke="#26133b"></path><path d="M589.7 247L573.7 110L481.9 175Z" fill="#09152f" stroke="#09152f"></path><path d="M133.6 292L226.5 351L247.5 313Z" fill="#00101c" stroke="#00101c"></path><path d="M247.5 313L226.5 351L353.3 345Z" fill="#011120" stroke="#011120"></path><path d="M328.3 461L387.1 471L399.1 352Z" fill="#09152f" stroke="#09152f"></path><path d="M399.1 352L500.9 472L460.9 335Z" fill="#191538" stroke="#191538"></path><path d="M200.6 245L247.5 313L240.5 247Z" fill="#011120" stroke="#011120"></path><path d="M189.6 164L200.6 245L240.5 247Z" fill="#20143a" stroke="#20143a"></path><path d="M292.3 0L284.5 82L363.3 94Z" fill="#021324" stroke="#021324"></path><path d="M328.3 461L399.1 352L353.3 345Z" fill="#191538" stroke="#191538"></path><path d="M559.7 373L624.5 329L555.7 264Z" fill="#011120" stroke="#011120"></path><path d="M632.5 150L577.7 97L573.7 110Z" fill="#09152f" stroke="#09152f"></path><path d="M632.5 150L573.7 110L589.7 247Z" fill="#041428" stroke="#041428"></path><path d="M573.7 110L577.7 97L493.9 75Z" fill="#191538" stroke="#191538"></path><path d="M226.5 351L328.3 461L353.3 345Z" fill="#0e1532" stroke="#0e1532"></path><path d="M387.1 471L500.9 472L399.1 352Z" fill="#191538" stroke="#191538"></path><path d="M559.7 373L629.5 381L624.5 329Z" fill="#09152f" stroke="#09152f"></path><path d="M692.5 206L632.5 150L589.7 247Z" fill="#26133b" stroke="#26133b"></path><path d="M254.5 133L189.6 164L240.5 247Z" fill="#00101c" stroke="#00101c"></path><path d="M178.6 100L189.6 164L254.5 133Z" fill="#00101c" stroke="#00101c"></path><path d="M566.7 469L629.5 381L559.7 373Z" fill="#06142b" stroke="#06142b"></path><path d="M706.4 296L692.5 206L589.7 247Z" fill="#06142b" stroke="#06142b"></path><path d="M524.9 0L370.1 0L406.1 65Z" fill="#0e1532" stroke="#0e1532"></path><path d="M406.1 65L370.1 0L363.3 94Z" fill="#06142b" stroke="#06142b"></path><path d="M284.5 82L178.6 100L254.5 133Z" fill="#26133b" stroke="#26133b"></path><path d="M524.9 0L406.1 65L493.9 75Z" fill="#09152f" stroke="#09152f"></path><path d="M500.9 472L566.7 469L559.7 373Z" fill="#021324" stroke="#021324"></path><path d="M245.5 478L302.3 495L328.3 461Z" fill="#041428" stroke="#041428"></path><path d="M328.3 461L302.3 495L387.1 471Z" fill="#06142b" stroke="#06142b"></path><path d="M451.9 562L562.7 515L500.9 472Z" fill="#26133b" stroke="#26133b"></path><path d="M500.9 472L562.7 515L566.7 469Z" fill="#06142b" stroke="#06142b"></path><path d="M550.7 0L493.9 75L577.7 97Z" fill="#20143a" stroke="#20143a"></path><path d="M550.7 0L524.9 0L493.9 75Z" fill="#131535" stroke="#131535"></path><path d="M706.4 296L589.7 247L624.5 329Z" fill="#131535" stroke="#131535"></path><path d="M632.5 150L638.5 79L577.7 97Z" fill="#191538" stroke="#191538"></path><path d="M700.4 114L638.5 79L632.5 150Z" fill="#011120" stroke="#011120"></path><path d="M226.5 351L245.5 478L328.3 461Z" fill="#09152f" stroke="#09152f"></path><path d="M142.6 434L245.5 478L226.5 351Z" fill="#131535" stroke="#131535"></path><path d="M370.1 0L292.3 0L363.3 94Z" fill="#09152f" stroke="#09152f"></path><path d="M283.5 0L178.6 100L284.5 82Z" fill="#0e1532" stroke="#0e1532"></path><path d="M89.8 197L133.6 292L200.6 245Z" fill="#06142b" stroke="#06142b"></path><path d="M638.5 79L550.7 0L577.7 97Z" fill="#041428" stroke="#041428"></path><path d="M89.8 197L200.6 245L189.6 164Z" fill="#0e1532" stroke="#0e1532"></path><path d="M200.6 245L133.6 292L247.5 313Z" fill="#011120" stroke="#011120"></path><path d="M292.3 0L283.5 0L284.5 82Z" fill="#06142b" stroke="#06142b"></path><path d="M629.5 381L706.4 296L624.5 329Z" fill="#191538" stroke="#191538"></path><path d="M771.4 349L706.4 296L629.5 381Z" fill="#09152f" stroke="#09152f"></path><path d="M451.9 562L500.9 472L387.1 471Z" fill="#0e1532" stroke="#0e1532"></path><path d="M566.7 469L678.5 468L629.5 381Z" fill="#011120" stroke="#011120"></path><path d="M375.1 600L415.1 559L302.3 495Z" fill="#021324" stroke="#021324"></path><path d="M302.3 495L415.1 559L387.1 471Z" fill="#191538" stroke="#191538"></path><path d="M133.6 292L143.6 387L226.5 351Z" fill="#00101c" stroke="#00101c"></path><path d="M415.1 559L451.9 562L387.1 471Z" fill="#021324" stroke="#021324"></path><path d="M716.4 140L700.4 114L632.5 150Z" fill="#191538" stroke="#191538"></path><path d="M638.5 79L663.5 0L550.7 0Z" fill="#26133b" stroke="#26133b"></path><path d="M716.4 140L632.5 150L692.5 206Z" fill="#09152f" stroke="#09152f"></path><path d="M787.2 212L716.4 140L692.5 206Z" fill="#06142b" stroke="#06142b"></path><path d="M771.4 349L739.4 250L706.4 296Z" fill="#041428" stroke="#041428"></path><path d="M706.4 296L739.4 250L692.5 206Z" fill="#041428" stroke="#041428"></path><path d="M125.6 0L116.8 133L178.6 100Z" fill="#20143a" stroke="#20143a"></path><path d="M178.6 100L116.8 133L189.6 164Z" fill="#021324" stroke="#021324"></path><path d="M73.8 392L142.6 434L143.6 387Z" fill="#011120" stroke="#011120"></path><path d="M142.6 434L208.5 506L245.5 478Z" fill="#00101c" stroke="#00101c"></path><path d="M245.5 478L208.5 506L302.3 495Z" fill="#041428" stroke="#041428"></path><path d="M143.6 387L142.6 434L226.5 351Z" fill="#20143a" stroke="#20143a"></path><path d="M73.8 392L143.6 387L133.6 292Z" fill="#0e1532" stroke="#0e1532"></path><path d="M116.8 133L89.8 197L189.6 164Z" fill="#09152f" stroke="#09152f"></path><path d="M674.5 495L566.7 469L562.7 515Z" fill="#26133b" stroke="#26133b"></path><path d="M674.5 495L678.5 468L566.7 469Z" fill="#191538" stroke="#191538"></path><path d="M89.8 197L72.8 271L133.6 292Z" fill="#131535" stroke="#131535"></path><path d="M303.3 600L375.1 600L302.3 495Z" fill="#131535" stroke="#131535"></path><path d="M415.1 559L375.1 600L451.9 562Z" fill="#131535" stroke="#131535"></path><path d="M644.5 600L674.5 495L562.7 515Z" fill="#131535" stroke="#131535"></path><path d="M506.9 600L562.7 515L451.9 562Z" fill="#20143a" stroke="#20143a"></path><path d="M678.5 468L771.4 349L629.5 381Z" fill="#06142b" stroke="#06142b"></path><path d="M718.4 0L638.5 79L700.4 114Z" fill="#041428" stroke="#041428"></path><path d="M718.4 0L663.5 0L638.5 79Z" fill="#131535" stroke="#131535"></path><path d="M375.1 600L506.9 600L451.9 562Z" fill="#011120" stroke="#011120"></path><path d="M279.5 600L303.3 600L302.3 495Z" fill="#131535" stroke="#131535"></path><path d="M780.2 432L771.4 349L678.5 468Z" fill="#06142b" stroke="#06142b"></path><path d="M739.4 250L787.2 212L692.5 206Z" fill="#021324" stroke="#021324"></path><path d="M506.9 600L542.7 600L562.7 515Z" fill="#0e1532" stroke="#0e1532"></path><path d="M72.8 271L73.8 392L133.6 292Z" fill="#09152f" stroke="#09152f"></path><path d="M142.6 434L136.6 515L208.5 506Z" fill="#021324" stroke="#021324"></path><path d="M208.5 506L279.5 600L302.3 495Z" fill="#00101c" stroke="#00101c"></path><path d="M808.2 265L787.2 212L739.4 250Z" fill="#011120" stroke="#011120"></path><path d="M716.4 140L782.2 136L700.4 114Z" fill="#021324" stroke="#021324"></path><path d="M177.6 600L279.5 600L208.5 506Z" fill="#20143a" stroke="#20143a"></path><path d="M787.2 212L782.2 136L716.4 140Z" fill="#00101c" stroke="#00101c"></path><path d="M62.8 421L136.6 515L142.6 434Z" fill="#06142b" stroke="#06142b"></path><path d="M283.5 0L125.6 0L178.6 100Z" fill="#26133b" stroke="#26133b"></path><path d="M116.8 133L0 173L89.8 197Z" fill="#09152f" stroke="#09152f"></path><path d="M89.8 197L0 231L72.8 271Z" fill="#20143a" stroke="#20143a"></path><path d="M771.4 349L808.2 265L739.4 250Z" fill="#021324" stroke="#021324"></path><path d="M900 117L851.2 66L782.2 136Z" fill="#011120" stroke="#011120"></path><path d="M0 396L62.8 421L73.8 392Z" fill="#191538" stroke="#191538"></path><path d="M73.8 392L62.8 421L142.6 434Z" fill="#20143a" stroke="#20143a"></path><path d="M782.2 136L718.4 0L700.4 114Z" fill="#06142b" stroke="#06142b"></path><path d="M768.4 478L780.2 432L678.5 468Z" fill="#0e1532" stroke="#0e1532"></path><path d="M771.4 349L857.2 398L808.2 265Z" fill="#06142b" stroke="#06142b"></path><path d="M768.4 478L678.5 468L674.5 495Z" fill="#09152f" stroke="#09152f"></path><path d="M542.7 600L644.5 600L562.7 515Z" fill="#09152f" stroke="#09152f"></path><path d="M761.4 532L768.4 478L674.5 495Z" fill="#191538" stroke="#191538"></path><path d="M125.6 0L56.8 43L116.8 133Z" fill="#021324" stroke="#021324"></path><path d="M72.8 271L0 306L73.8 392Z" fill="#011120" stroke="#011120"></path><path d="M0 173L0 231L89.8 197Z" fill="#09152f" stroke="#09152f"></path><path d="M99.8 600L177.6 600L136.6 515Z" fill="#021324" stroke="#021324"></path><path d="M136.6 515L177.6 600L208.5 506Z" fill="#041428" stroke="#041428"></path><path d="M0 231L0 306L72.8 271Z" fill="#191538" stroke="#191538"></path><path d="M0 83L0 173L116.8 133Z" fill="#06142b" stroke="#06142b"></path><path d="M0 306L0 396L73.8 392Z" fill="#041428" stroke="#041428"></path><path d="M62.8 421L66.8 544L136.6 515Z" fill="#00101c" stroke="#00101c"></path><path d="M739.4 600L761.4 532L674.5 495Z" fill="#191538" stroke="#191538"></path><path d="M900 426L857.2 398L780.2 432Z" fill="#191538" stroke="#191538"></path><path d="M125.6 0L51.8 0L56.8 43Z" fill="#09152f" stroke="#09152f"></path><path d="M56.8 43L0 83L116.8 133Z" fill="#20143a" stroke="#20143a"></path><path d="M0 0L0 83L56.8 43Z" fill="#191538" stroke="#191538"></path><path d="M795.2 600L783.2 524L761.4 532Z" fill="#20143a" stroke="#20143a"></path><path d="M761.4 532L783.2 524L768.4 478Z" fill="#021324" stroke="#021324"></path><path d="M780.2 432L857.2 398L771.4 349Z" fill="#021324" stroke="#021324"></path><path d="M0 485L66.8 544L62.8 421Z" fill="#041428" stroke="#041428"></path><path d="M900 426L780.2 432L768.4 478Z" fill="#011120" stroke="#011120"></path><path d="M900 117L782.2 136L787.2 212Z" fill="#0e1532" stroke="#0e1532"></path><path d="M66.8 544L99.8 600L136.6 515Z" fill="#20143a" stroke="#20143a"></path><path d="M644.5 600L739.4 600L674.5 495Z" fill="#131535" stroke="#131535"></path><path d="M900 426L900 379L857.2 398Z" fill="#131535" stroke="#131535"></path><path d="M900 254L787.2 212L808.2 265Z" fill="#09152f" stroke="#09152f"></path><path d="M782.2 136L851.2 66L718.4 0Z" fill="#191538" stroke="#191538"></path><path d="M0 396L0 485L62.8 421Z" fill="#011120" stroke="#011120"></path><path d="M66.8 544L0 600L99.8 600Z" fill="#041428" stroke="#041428"></path><path d="M0 485L0 493L66.8 544Z" fill="#0e1532" stroke="#0e1532"></path><path d="M900 269L900 254L808.2 265Z" fill="#041428" stroke="#041428"></path><path d="M900 379L900 269L808.2 265Z" fill="#191538" stroke="#191538"></path><path d="M51.8 0L0 0L56.8 43Z" fill="#011120" stroke="#011120"></path><path d="M900 44L845.2 0L851.2 66Z" fill="#26133b" stroke="#26133b"></path><path d="M851.2 66L845.2 0L718.4 0Z" fill="#131535" stroke="#131535"></path><path d="M900 426L768.4 478L783.2 524Z" fill="#191538" stroke="#191538"></path><path d="M857.2 398L900 379L808.2 265Z" fill="#00101c" stroke="#00101c"></path><path d="M900 254L900 117L787.2 212Z" fill="#041428" stroke="#041428"></path><path d="M900 563L900 426L783.2 524Z" fill="#191538" stroke="#191538"></path><path d="M739.4 600L795.2 600L761.4 532Z" fill="#191538" stroke="#191538"></path><path d="M900 117L900 44L851.2 66Z" fill="#191538" stroke="#191538"></path><path d="M0 493L0 600L66.8 544Z" fill="#011120" stroke="#011120"></path><path d="M900 44L900 0L845.2 0Z" fill="#09152f" stroke="#09152f"></path><path d="M795.2 600L900 563L783.2 524Z" fill="#041428" stroke="#041428"></path><path d="M795.2 600L900 600L900 563Z" fill="#00101c" stroke="#00101c"></path></g></svg>